<?xml version="1.0" encoding="UTF-8"?>
<svg id="Layer_4" data-name="Layer 4" xmlns="http://www.w3.org/2000/svg" viewBox="0 0 934.14 1148.42">
  <path d="M786.9,1081.2l-2.25,13.87-14.57,9.15-23.77,1.78h-15.62l-21.07,7.97-23.18,1.68-31.02,4.37-10.41-16.97-22.94-38.39-.13-26.28,8.4-30.91-10.75-21.49-10.75-2.36-19.79,13.89-30.27,13.66-36.27,4.45-29.57.67-28.6-4.59-37.91-13.93-18.7-8.15-4.93,6.25,3.48,17.77,10.06,11.19,12.48,3.99,15.16,14.75,11.79,42.48-23.61,16.87-16.63-.84-12.98-1.78-25.39,10.43-22.87-1.61-12.09-10.74-9.35-8.1-4.85,12.07-21.67,5.96-25.31-8.84-4.94-22.33,4.88-25.61,6.02-26.5-3.12-24.94-6.24-28.06-4.67-12.91-6.62-6.86-14.71,11.54-34.58,8.47-30.51,1.66-45.8-6.86-40.67-16.3-27.25-19.27-30.89-36.78-17.37-35.66-12.65-46.92-5.9-56.54.07-6.8.12-12.84c2.24-1.39,4.74-.96,7.11.29l5.06,10.2,4.79,9.67,17.35,25.24,16.4,12.84,30.04,16.92,51.17,9.57,38.9-4.5,40.11-17.08,33.95-27.45,8.84-9.4,77.47-95.12,23.78-38.75,16.99-59.29,1.14-32.37-8.63-40.79-17.44-40.95-20.34-44.97-6.22-38.46.16-39.7,4.5-38.68-.05-21.76-5.5-24.44-2.02-35.04,3.53-41.19,8.63-33.12,14.1-27.36,17.17-17.93,23.21-10.97,23.56,1.68,14.44-.27,28.67-19.49,26.04-13.4,49.48-15.94,43.93-3.93,19.55-2.51,17.52-16.67,18.65-4.83,21.69,4.73,17.66,11.84,17.97,20.27,22.88,43.59,21.54,68.79v21.21l-.73,16.25,9.49,7.45,13.5,29.09,12.81,44.29v20.39l-1.74,27.91v22.26l-14.05,41.34-21.82,52.54-18.31,35.47-20.88,25.08-2.89,13.6,6.12,7.76,17.37,5.83,15.81,18.41,12.02,27.19,5.97,25.61.34,19.14-13.01,28.8-15.03,100.58,16.76,68.6,15.88,44.55,2.79,38.6-7.39,44.01-16.29,31.24,7.32,7.46,9.37,21.34,18.08,24.22,10.65,18.41,6.06,20.7,4.73,16.64Z" style="fill: #ee6b60;"/>
  <path d="M684,1064.56c-.07-2.69-2.43-4.68-5.02-4.37-30.77,3.62-33.73,18.54-33.99,20.4,0,.02.01.04.04.04l8.89,1.12s0,.04-.01.12c.08-.35.7-2.5,3.69-5.02,3.18-2.68,9.61-6.19,22.2-7.7,2.34-.28,4.26-2.24,4.2-4.6ZM732.12,1064.84c-20.86-6.95-30.99,3.52-31.42,3.97-1.7,1.82-1.63,4.69.18,6.39.88.82,1.99,1.23,3.09,1.23,1.19,0,2.37-.47,3.24-1.41.28-.27,6.97-6.67,22.06-1.64,2.35.78,4.91-.49,5.69-2.85.79-2.36-.49-4.9-2.84-5.69ZM732.12,1064.84c-20.86-6.95-30.99,3.52-31.42,3.97-1.7,1.82-1.63,4.69.18,6.39.88.82,1.99,1.23,3.09,1.23,1.19,0,2.37-.47,3.24-1.41.28-.27,6.97-6.67,22.06-1.64,2.35.78,4.91-.49,5.69-2.85.79-2.36-.49-4.9-2.84-5.69ZM678.98,1060.19c-30.77,3.62-33.73,18.54-33.99,20.4,0,.02.01.04.04.04l8.89,1.12s0,.04-.01.12c.08-.35.7-2.5,3.69-5.02,3.18-2.68,9.61-6.19,22.2-7.7,2.34-.28,4.26-2.24,4.2-4.6-.07-2.69-2.43-4.68-5.02-4.37ZM791.84,1074.12c-.28-1.82-.54-3.53-.64-4.88-.39-5.39-2.51-10.04-6.18-13.52,0,0-.01-.02-.01-.03.09-.47.12-.98.08-1.48-1.09-15.25-16.83-35.68-28.32-50.6-1.67-2.16-3.22-4.18-4.58-5.98-4.41-5.88-7.03-13.66-8.55-20-.93-3.86-1.45-7.18-1.71-9.22,0-.01,0-.02,0-.03,8.69-12.52,14.37-29.59,16.91-50.86,5.85-48.94-5.84-76.98-6.34-78.15-1.31-3.04-4.82-4.45-7.86-3.16-3.05,1.29-4.47,4.81-3.18,7.86.11.26,10.9,26.56,5.47,72.03-2.43,20.3-7.72,35.93-15.83,46.82-.1.14-.21.28-.31.42-9.23,12.16-22.05,18.28-38.38,18.28-.45,0-.92,0-1.38-.02-22.78-.46-38-9.21-46.39-26.71,0-.01,0-.03,0-.04,18.34-27.12,30.83-62.54,37.66-106.48.51-3.28-1.73-6.34-5.01-6.85-3.28-.52-6.34,1.73-6.85,5.01-8.31,53.51-25.6,94.21-51.39,120.96-2.69,2.79-5.47,5.43-8.34,7.93-22.07,19.27-49.79,30.36-84.34,33.82-7.06.71-13.8,1.03-20.23,1.03-46.61,0-76.48-16.77-87.21-24.02-.02-.01-.02-.04-.01-.06,1.25-1.85,2.43-3.78,3.56-5.77,7.92-14.1,11.42-29.41,13.81-42.52,4.78-26.3,6.33-48.57,5.03-72.2-.18-3.31-3-5.84-6.32-5.66-3.3.18-5.84,3.01-5.66,6.32,1.25,22.66-.25,44.06-4.86,69.39-3.1,17.02-7.7,33.88-17.99,47.34t-.01.01c-.37.5-.75.98-1.15,1.46-.94,1.17-1.94,2.32-2.98,3.43-.01,0-.01.01-.02.02-.01,0-.01.01-.02.02-.43.47-.88.93-1.33,1.38-.01,0-.01.01-.01.01-6.64,6.65-15.15,12.15-26.19,15.99-36.26,12.62-57.72-10.11-58.66-11.13-2.22-2.44-6-2.63-8.46-.42-2.46,2.22-2.65,6.02-.43,8.48.87.96,17.48,18.91,46.08,18.91,7.64,0,16.14-1.28,25.42-4.51,7.6-2.65,14.51-6.16,20.68-10.52.03-.02.06,0,.06.03.44,11.11,2.97,17.72,7.94,20.76,2.36,1.45,4.94,2.59,7.67,3.8,2.47,1.09,4.9,2.17,7.11,3.43.03.02.03.07-.01.08-5,1.07-10.28,3.81-16.08,10.28-2.22,2.47-2.01,6.26.45,8.47,2.47,2.21,6.26,2.01,8.48-.46,6.69-7.46,10.57-7.19,18.3-6.66.61.04,1.22.09,1.85.13.11,0,.22.02.33.02,1.88.17,6.05,2.22,10.11,7.24,5.04,6.24,7.31,13.94,6.22,21.11-.68,4.5-2.75,18.17-26.36,22.28-6.19,1.08-9.87-3.61-11.4-6.24,0,0,0-.02,0-.03,2.45-11.83.61-22.95-5.23-31.5-6.11-8.93-16.33-14.72-28.78-16.31-3.28-.41-6.29,1.91-6.71,5.2-.42,3.29,1.91,6.29,5.2,6.71,9.13,1.16,16.18,5.02,20.38,11.17,4.28,6.26,5.33,14.49,3.06,23.82-.03.14-.07.28-.11.42-4.58,17.62-35.01,15.54-46.39,13.25-6.21-1.26-12.67-15.51-15.28-25.21h0c.06-10.56-1.56-17.78-1.67-18.22-.74-3.23-3.95-5.23-7.18-4.49-3.22.73-5.24,3.95-4.51,7.18.03.13,3.07,13.9-.05,30.53-.92,4.9-5.9,7.39-9.92,8.62-10.25,3.14-24.46,1.07-29.79-4.34-8.63-8.74-4.82-25.73,1.51-48.78,3.06-11.14,3.41-24.64,2.85-36.16,0-.04.05-.05.07-.03,2.23,2.36,3.7,3.45,3.97,3.65,1.06.75,2.28,1.11,3.5,1.11,1.88,0,3.73-.87,4.9-2.51,1.91-2.71,1.3-6.43-1.4-8.35-.29-.22-29.39-22.98-32.51-113.49-3.23-93.64,21.93-151.87,43.68-184.29.09-.12.16-.23.23-.34,4.6-6.81,10.05-13.77,15.82-21.13,12.15-15.49,25.99-33.15,36.9-56.09.02-.04.07-.03.08.01,3.42,25.92,14.4,49.43,15.02,50.72.85,1.81,2.65,2.87,4.52,2.87.71,0,1.44-.16,2.13-.48,2.5-1.18,3.57-4.16,2.39-6.66-.19-.4-18.63-39.92-14.47-70.61.04-.27.07-.53.12-.8.76-5.26,2.03-9.91,3.8-13.91,2.35-5.38,5.59-9.6,9.69-12.62,8.36-6.17,18.07-5.68,23.11-4.84,7.87,1.31,26.37,7.52,28.34,36.72.19,2.75,2.57,4.83,5.33,4.65,2.75-.19,4.83-2.57,4.65-5.33-1.7-25.2-15.41-42.36-36.67-45.9-11.41-1.9-22.31.46-30.7,6.65-.01.01-.02.01-.03.02.07-.52.14-1.04.2-1.57,6.81-55.7-16.84-101.07-32.49-131.09-4.4-8.44-8.19-15.72-10.05-21-10.71-30.49-12.39-70.48-5.04-119.08,0-.04.06-.05.08-.01,13.58,23.2,29.7,30.96,30.86,31.49.81.38,1.66.55,2.49.55,2.26,0,4.41-1.28,5.43-3.46,1.4-2.99.11-6.55-2.87-7.97-.11-.05-10.64-5.17-21.09-19.89-17.64-24.84-21.54-57.45-21.7-80.43-.27-37.9,5.67-69.08,17.66-92.66,9.41-18.5,22.38-31.34,36.53-36.15,23.97-8.16,50.75,2.74,68.22,27.78,1.9,2.72,5.64,3.39,8.36,1.49,2.71-1.9,3.38-5.64,1.48-8.36-7.9-11.32-17.5-20.17-27.98-26.2-.03-.01-.03-.05,0-.07,7.88-6.06,22.4-16.28,41.63-25.83,25.72-12.76,65.12-26.77,109.93-23.38.03,0,.05.03.04.06-1.63,4.4-2.92,9.17-3.89,14.29-3.15,16.82-1.55,31.54-1.48,32.16.38,3.29,3.34,5.65,6.64,5.28,3.29-.37,5.66-3.33,5.29-6.62-.06-.53-5.47-52.68,26.92-65.79,32.72-13.25,65.23,21.75,82.94,62.31,15.96,36.55,35.48,90.45,20.81,136.31-1.01,3.16.73,6.54,3.88,7.55.61.19,1.23.28,1.83.28,2.54,0,4.9-1.62,5.72-4.17,1.67-5.23,2.94-10.54,3.86-15.89,0-.04.06-.05.08-.01,11.03,20.28,29.24,60.25,25.93,98.09,0,.03-.03.04-.06.03-1.56-.72-3.41-.76-5.07.04-2.99,1.42-4.25,5-2.84,7.99.04.08,2.38,5.09,4.01,12.82,0,.03-.02.06-.05.05-12.71-3.21-17.21-16.56-17.44-17.27-.99-3.15-4.35-4.9-7.51-3.91-3.16.98-4.92,4.35-3.93,7.51,1.36,4.34,4.47,10.4,9.51,15.62.01.01.02.03,0,.05-4.72,7.06-11.02,21.24-22.29,49.12-3.21,7.91-5.97,14.75-7.99,19.26-7.27,16.21-18.21,28.59-27.87,31.55-4.49,1.38-16.82.97-29.87.54-16.99-.57-38.13-1.27-57.62,1.05-17.55,2.08-33.67,6.88-47.9,11.11-15.04,4.48-28.02,8.36-38.93,8.06-13.6-.35-39.13-21.76-68.3-57.27-6.9-8.4-13.92-13.58-19.46-16.74-.02-.01-.03-.04,0-.06,6.85-6.82,11.05-16.38,12.49-28.52.39-3.29-1.95-6.27-5.24-6.67-3.29-.38-6.28,1.96-6.67,5.25-1.3,10.85-5.19,18.8-11.57,23.63-1.13.85-2.3,1.58-3.49,2.21-.17.07-.32.15-.48.24-8.77,4.36-18.21,2.97-18.39,2.94-3.25-.54-6.33,1.68-6.88,4.94-.54,3.27,1.67,6.36,4.93,6.9.25.04,2.48.4,5.85.4,4.53,0,11.13-.64,17.83-3.51,0,0,.02,0,.03,0,3.73,1.4,12.79,5.67,21.79,16.62,41.37,50.36,64.85,61.32,77.26,61.65.49.01.98.02,1.48.02,12.39,0,25.78-3.99,41.19-8.58,13.76-4.09,29.35-8.74,45.88-10.7,18.59-2.2,39.23-1.52,55.81-.97,15.89.53,27.38.91,33.78-1.05,13.22-4.05,26.42-18.3,35.3-38.12,2.12-4.72,4.92-11.65,8.17-19.67,5.22-12.9,15.42-38.08,20.74-46.5.01-.02.03-.02.05-.01,3.31,1.68,7.07,2.88,11.28,3.36.02,0,.04.02.04.04.07,1.91.05,3.88-.08,5.9-1.07,17.1-32.58,91.64-45.06,117.26-3.83,7.88-12.26,21.03-24.94,34.61-.31.34-.62.67-.95,1.01,0,.02-.02.03-.03.04-19.41,20.46-48.45,41.6-86.04,46.92-63.06,8.93-100.86-19.42-115.09-30.09-6.82-5.12-21.43-14.75-38.34-25.91-23.58-15.55-52.94-34.91-60.91-42.19-10.85-9.9-16.8-26.2-23.69-45.06-1.15-3.15-2.33-6.38-3.57-9.68-7.58-20.19-7.01-28.87-6.92-29.83l-.02.08-11.73-2.34s-.04,0-.05.03c-.37,1.88-1.6,12.05,7.48,36.28,1.23,3.26,2.4,6.45,3.53,9.57,7.44,20.35,13.86,37.93,26.88,49.81,8.67,7.92,37.21,26.74,62.39,43.35,16.06,10.59,31.22,20.59,37.75,25.49,20.45,15.33,51.72,34.24,98.11,34.24,8.15,0,16.76-.58,25.86-1.87,30.6-4.33,55.95-18.34,75.57-34.43.03-.03.08,0,.06.04-6.95,23.94-12.28,52.05-14.01,61.61-.33,1.85-.53,3.01-.58,3.31-.46,2.67.92,5.22,3.23,6.37,0,0,.02,0,.03,0,2.17-.35,4.2-.49,6.1-.46,0,0,.02,0,.03,0,1.25-.89,2.17-2.26,2.45-3.88.02-.11.39-2.28,1.07-5.9,1.98-10.62,6.53-33.75,12.22-54.22,0-.02.02-.03.05-.03,30.17,2.56,42.53,45.95,46.62,60.38,6.76,23.74,1.31,44.13-7.86,50.12-8.24,5.38-15.41,1.59-18.59-.74-.87-.65-1.44-1.19-1.65-1.39-1.96-1.93-5.11-1.93-7.05.02-.98.97-1.47,2.24-1.47,3.52v.02c0,1.28.49,2.55,1.47,3.53,2.19,2.19,5.87,4.78,10.44,6.34,2.54.87,5.35,1.42,8.33,1.42,4.39,0,9.16-1.19,13.99-4.35,7.85-5.13,12.91-14.68,14.64-27.6,1.41-10.55.45-22.8-2.63-33.63-4.51-15.82-17.86-62.73-53.35-67.37-.03,0-.04-.03-.03-.05,1.7-5.45,3.49-10.49,5.32-14.76,0,0,0,0,0-.01,13.56-14.56,22.57-28.62,26.68-37.06,10.32-21.19,44.92-100.57,46.24-121.78.28-4.47.12-8.7-.26-12.62-.01-.05-.01-.1-.01-.15-.01-.15-.02-.3-.04-.44-.01-.08-.03-.16-.04-.24.01-.02,0-.03,0-.04-.5-4.59-1.33-8.72-2.24-12.19,0,0,0-.01,0-.02,6.99-30.94-1.87-64.03-10.8-86.8-7.66-19.51-16.42-34.54-20.36-40.91,0,0,0-.01,0-.02,2.17-40.99-13.47-83.11-26.79-113.61-10.37-23.76-24.62-43.86-40.11-56.59-19.01-15.63-39.18-19.8-58.33-12.04-10.37,4.2-18.63,11.68-24.49,22.08,0,.01-.02.02-.04.02-48.73-4.66-91.52,10.46-119.15,24.22-23.75,11.83-40.3,24.39-46.97,29.84-.01,0-.03.01-.04,0-14.16-5.49-29.38-6.13-43.84-1.2-17.12,5.83-32.52,20.77-43.35,42.07-12.87,25.31-19.26,58.34-18.97,98.19.18,25.14,4.2,44.94,9.89,60.4,0,0,0,.01,0,.02-10.89,58.44-10.01,106.3,2.63,142.28,2.14,6.08,6.12,13.72,10.73,22.56,14.96,28.71,37.57,72.09,31.21,124.09-6.51,53.27-30.64,84.06-51.93,111.22-5.69,7.26-11.09,14.13-15.79,21.03,0,0,0,0,0,0-7.99,6.06-16.22,16.72-25.7,29-13.52,17.5-30.33,39.27-52.92,56.26-26.21,19.71-54.88,29.15-87.68,28.8-41.29-.42-74.99-16.26-100.18-47.09-6.2-7.59-9.09-13.77-14.9-22.05,0,0,0,0,0,0-4.35-6.29-20.44-24.06-22.58-.8-.12,1.34-.25,3.19-.25,5.87,0,79.69,21.88,139.14,61.09,178.35,22.1,22.1,49.92,37.28,82.69,45.12,17.09,4.09,35,6.1,54.5,6.1,3.31,0,6.67-.06,10.07-.17,30.71-1.04,48.8-11.26,58.22-19.04.02-.02.06,0,.06.02,3.07,11.8,6.59,21.26,10.1,28.79h0c.78,4.68,5.54,35.46.02,55.57-5.93,21.57-12.64,46.03,1.52,60.38,5.88,5.96,16.8,9.38,27.83,9.38,4.78,0,9.58-.64,14.01-1.99,7.72-2.36,13.31-6.6,16.24-12.2.01-.03.05-.03.07,0,3.93,6.67,9.34,12.64,16.42,14.07,4.94,1,11.22,1.73,17.86,1.73,13.95,0,29.52-3.21,37.75-13.87.01-.02.04-.02.06,0,3.65,3.37,8.62,6.06,14.83,6.06,1.25,0,2.56-.11,3.91-.35,14.66-2.55,32.83-10.22,36.18-32.3,1.59-10.5-1.6-21.59-8.76-30.45-4.53-5.6-9.99-9.54-15.18-11.04,0,0-.02,0-.02-.02-4.87-8.3-13.09-11.93-19.8-14.91-2.36-1.04-4.58-2.02-6.16-2.99,0,0,0,0,0,0-1.23-1.11-2.4-6.73-2.4-14.39,0-2.05.08-4.24.27-6.54,0-.03.04-.05.06-.03,11.78,8.18,43.64,26.39,94,26.39,6.94,0,14.23-.34,21.86-1.11,34.39-3.45,63.08-14.28,86.26-32.71.02-.01.05-.01.06,0,4.23,5.83,9.55,15,9.55,22.76,0,5.19-1.94,12.28-4,19.79-3.49,12.8-7.11,26.03-2.88,35.98,3.12,7.31,8.76,15.55,13.74,22.81,3.7,5.4,8.3,12.12,8.87,14.58l.11.49c1.5,6.52,4.85,21.13,24.1,21.13,1.61,0,3.32-.1,5.15-.32,10.33-1.22,20.88-2.46,27.33-7.84.01,0,.02-.01.04,0,3.41,1.15,8.61,2.32,15.55,2.32,2.71,0,5.68-.18,8.92-.61,8.01-1.07,14.89-4.47,19.64-9.59.01-.01.03-.02.05,0,5.7,2.64,11.61,3.8,17.35,3.8,11.24-.01,21.77-4.44,28.58-10.79,8.95-8.36,7.09-20.69,5.86-28.86ZM257.97,893.16c.74,21.4,2.89,39.27,5.82,54.15,0,.01,0,.03,0,.03-1.76,1.99-5.26,5.4-10.91,8.87-8.1,4.98-22.44,11.06-44.67,11.82-22.37.75-42.44-1.08-61.37-5.61-30.58-7.31-56.48-21.42-77-41.94-36.78-36.78-56.15-93.81-57.73-169.76,0-.04.06-.06.08-.02,4.09,7.42,9.41,15.75,16.21,24.11,18.95,23.35,53.37,51.31,109.66,51.88.59,0,1.18.01,1.77.01,71.37,0,112.26-43.87,139.87-78.74.03-.04.09,0,.07.04-13.68,34.92-23.96,82.45-21.79,145.16ZM777.79,1094.21c-5.57,5.2-18.76,10.81-31.82,5.27-.02,0-.03-.03-.02-.05,1.8-6.38,1.14-13.52-1.97-20.63-1.33-3.04-4.87-4.43-7.9-3.1-3.04,1.33-4.42,4.87-3.1,7.9,2.56,5.85,2.62,11.24.18,15.57-2.55,4.53-7.79,7.62-14.39,8.5-7.66,1.03-13.34.28-16.93-.6-.02,0-.03-.02-.03-.05.19-1.22.29-2.53.3-3.93.09-12.88-4.37-30.29-4.56-31.03-.82-3.21-4.09-5.13-7.3-4.31-3.21.83-5.14,4.1-4.31,7.31.04.16,4.25,16.65,4.17,27.95-.04,5.98-1.93,8.29-22.99,10.77-13.15,1.56-14.47-4.24-16.15-11.57l-.12-.51c-1.02-4.45-4.72-9.99-10.66-18.66-4.67-6.81-9.95-14.52-12.6-20.73-2.6-6.11.6-17.8,3.42-28.11,2.27-8.31,4.42-16.16,4.42-22.96,0-12-7.66-24.18-12.46-30.66-.01-.02,0-.04,0-.05,4.87-4.58,9.45-9.57,13.74-14.93.02-.02.05-.02.07,0,10.86,18.08,28.99,27.49,54.01,28.01.55.01,1.1.02,1.65.02,15.6,0,28.79-4.63,39.31-13.8.02-.02.06-.01.07.02,1.79,7.63,5.03,17.33,10.76,24.98,1.39,1.84,2.97,3.9,4.67,6.11,7.97,10.35,20.52,26.62,24.58,38.42.01.03-.02.06-.05.05-2.69-.52-5.63-.78-8.82-.78-18.9,0-26.74,11.36-27.27,12.17-.01.02,0,.04.02.05l10.03,6.5-.02.05c.46-.64,5.27-6.77,17.24-6.77,10.35,0,15.83,3.18,16.28,9.45.13,1.82.42,3.77.73,5.83,1.22,8.07,1.84,14.54-2.18,18.29ZM732.12,1064.84c-20.86-6.95-30.99,3.52-31.42,3.97-1.7,1.82-1.63,4.69.18,6.39.88.82,1.99,1.23,3.09,1.23,1.19,0,2.37-.47,3.24-1.41.28-.27,6.97-6.67,22.06-1.64,2.35.78,4.91-.49,5.69-2.85.79-2.36-.49-4.9-2.84-5.69ZM678.98,1060.19c-30.77,3.62-33.73,18.54-33.99,20.4,0,.02.01.04.04.04l8.89,1.12s0,.04-.01.12c.08-.35.7-2.5,3.69-5.02,3.18-2.68,9.61-6.19,22.2-7.7,2.34-.28,4.26-2.24,4.2-4.6-.07-2.69-2.43-4.68-5.02-4.37ZM684,1064.56c-.07-2.69-2.43-4.68-5.02-4.37-30.77,3.62-33.73,18.54-33.99,20.4,0,.02.01.04.04.04l8.89,1.12s0,.04-.01.12c.08-.35.7-2.5,3.69-5.02,3.18-2.68,9.61-6.19,22.2-7.7,2.34-.28,4.26-2.24,4.2-4.6ZM732.12,1064.84c-20.86-6.95-30.99,3.52-31.42,3.97-1.7,1.82-1.63,4.69.18,6.39.88.82,1.99,1.23,3.09,1.23,1.19,0,2.37-.47,3.24-1.41.28-.27,6.97-6.67,22.06-1.64,2.35.78,4.91-.49,5.69-2.85.79-2.36-.49-4.9-2.84-5.69ZM323.38,1053.09c-18.27-8.42-30.69-.13-34.71,5.43-1.45,2.02-1.01,4.85,1,6.31.81.58,1.73.86,2.65.86,1.38,0,2.75-.64,3.62-1.86.78-1.02,8.03-9.78,23.67-2.57,2.25,1.05,4.93.06,5.97-2.2,1.04-2.25.05-4.93-2.2-5.97ZM364.53,1044.13c-14.03,0-20.69,9.83-22.41,15.4-.77,2.49.62,5.32,3.14,5.97.36.09.72.14,1.07.14,1.95,0,3.75-1.29,4.33-3.26.28-.94,3.02-9.18,13.73-9.25,2.32-.02,4.38-1.73,4.61-4.04.27-2.7-1.84-4.96-4.48-4.96ZM732.12,1064.84c-20.86-6.95-30.99,3.52-31.42,3.97-1.7,1.82-1.63,4.69.18,6.39.88.82,1.99,1.23,3.09,1.23,1.19,0,2.37-.47,3.24-1.41.28-.27,6.97-6.67,22.06-1.64,2.35.78,4.91-.49,5.69-2.85.79-2.36-.49-4.9-2.84-5.69ZM684,1064.56c-.07-2.69-2.43-4.68-5.02-4.37-30.77,3.62-33.73,18.54-33.99,20.4,0,.02.01.04.04.04l8.89,1.12s0,.04-.01.12c.08-.35.7-2.5,3.69-5.02,3.18-2.68,9.61-6.19,22.2-7.7,2.34-.28,4.26-2.24,4.2-4.6Z" style="fill: #ce5a50;"/>
  <path d="M900.26,617.54l-628,61.03c-8.58.83-14.87,8.46-14.05,17.04l16.41,172.95c.8,8.46,8.32,14.65,16.78,13.82l628.91-61.82c8.43-.83,14.59-8.33,13.76-16.76l-16.95-172.41c-.83-8.48-8.38-14.68-16.86-13.85Z" style="fill: #eef2b0;"/>
  <path d="M446.32,278.79c14.8-8.29,20.95,8.61,20.95,17.39s-1.96,24.06,0,28.51,9.15,14.25,0,18.17-15.76-15.68-20.95-24.82c-5.19-9.15-15.07-30.8,0-39.25ZM677.88,246.17c2.22,11.76,11.5,24.17,6.46,30.39-5.04,6.22-10.64,17.3-1.88,19.62,8.76,2.32,21.94-29.76,24.55-40.86,2.61-11.11-2.71-42.89-22.67-32.66-7.65,3.92-8.68,11.76-6.46,23.52ZM642.23,185.27l22.73,7.53,22.77,10.58,15.04,9.94c33.27-21.09,36.38-80.21,23.23-113.33s-42.08-83.48-83.77-65.26c-73.54,32.14,0,150.54,0,150.54ZM420.01,276.56l15.33-22.11,21.73-15.45c11.59-105-33.08-120.03-57.85-118.08-18.48,1.45-47.73,16.58-51.62,91.59-3.9,75,41.88,100.81,55.03,101.3s21.36-8.94,21.36-8.94l-3.98-28.31Z"/>
  <path d="M703.2,300.84c-.59.23-1.2.34-1.8.34-2.01,0-3.9-1.21-4.67-3.2-.99-2.57.29-5.47,2.86-6.46,15.82-6.13,17.26-20.6,14.39-43.52-1.5-12.05-8.55-28.35-20.47-35.67-7.5-4.6-16.2-5.17-25.85-1.7-7.3,2.63-12.24,6.93-15.1,13.14-6.71,14.54.63,34.34.7,34.54.97,2.58-.32,5.46-2.9,6.44s-5.47-.31-6.45-2.89c-.37-.97-8.9-23.84-.46-42.23,3.99-8.67,10.99-14.87,20.82-18.4.56-.2,1.12-.39,1.68-.57-4.12-3.24-10.8-6.46-20.55-8.56-21.24-4.57-51.04-3.11-88.57,4.34-62.58,12.42-88.7,37.88-97.81,49.75,2.94.87,5.68,2.25,8.22,4.14,15.2,11.36,16.49,37.18,16.54,38.28.12,2.76-2.02,5.09-4.78,5.21-2.75.12-5.09-2.02-5.21-4.77,0-.11-.29-5.66-2-12.26-1.72-6.58-4.86-14.21-10.56-18.46-4.43-3.3-9.88-4.09-16.67-2.4-13.69,3.41-17.73,16.47-18.93,23.95-3.57,22.41,7.56,44.12,20.38,52.17,2.34,1.47,3.05,4.56,1.58,6.9-.95,1.51-2.58,2.34-4.24,2.34-.91,0-1.83-.25-2.65-.77-18.07-11.34-28.79-38.09-24.94-62.21,2.69-16.88,12.31-28.57,26.39-32.08.94-.24,1.87-.44,2.79-.59h0c1.63-2.94,5.36-8.74,12.38-15.78,1.97-44.47-6.43-76.2-25.65-96.94-8.41-9.06-19.24-12.99-32.19-11.66-10.1,1.04-17.79,4.99-17.86,5.03-2.45,1.28-5.47.34-6.75-2.11-1.28-2.44-.35-5.45,2.09-6.74,12.55-6.61,41.66-13.31,62.04,8.68,19.68,21.24,29.08,52.3,28.57,94.69,16.52-12.97,43.61-27.54,86.93-36.14,34.39-6.82,59.57-8.16,78.01-6.6-7.33-13.73-19.98-39.51-24.39-61.49-8.72-43.45-.03-74.19,25.12-88.91,2.39-1.39,5.45-.59,6.84,1.79,1.4,2.39.6,5.45-1.79,6.84-26.68,15.62-25.8,51.2-20.37,78.31,4.92,24.52,21.45,55.36,26.88,65.06,22.44,4.12,31.63,13.1,35.28,18.75,6.66.08,12.96,1.89,18.66,5.39,14.81,9.09,23.31,28.12,25.17,42.95,1.92,15.35,5.49,43.94-20.71,54.08Z" style="fill: #ce5a50;"/>
  <path d="M308.85,1067.29c20.79-.85,22.42,32.16,15.4,50.24-7.02,18.08-18.91,28.63-27.55,27.01-8.64-1.62-12.96-36.19-11.88-52.4,1.08-16.21,10.8-24.31,24.04-24.85ZM357.74,1088.9c.54,18.37,22.69,25.39,30.75,31.87,8.06,6.48.59,17.83,12.47,18.37,11.88.54,14.44-38.68,8.18-59.45-6.25-20.77-30.87-24.28-44.61-15.1,0,0-7.32,5.94-6.78,24.31ZM432.92,1095.92c4.41,5.94-.09,25.93,6.39,26.47s9.18-3.78,15.67-22.92c6.48-19.14,5.4-53.25-11-55.89-16.4-2.64-28.15,2.54-28.44,13.99-.54,21.61,12.96,32.41,17.38,38.36ZM658.52,1124.91c5.54,7.41,0,20.68,14.57,21.62,14.57.94,26.79-43.72,22.34-53.56-4.46-9.84-13.26-17.29-27.51-14.13-23.83,5.28-14.94,38.66-9.4,46.07ZM703.98,1124.91c2.69,7.05,3.42,23.03,13.35,23.5,9.94.47,22.97-38.54,23.6-50.73s-9.69-25.24-26.49-22.13c-25.38,4.7-13.16,42.3-10.47,49.36ZM751.59,1111.75c2.18,4.89,6.58,23.85,13.63,23.85s14.57-22.44,16.66-37c2.09-14.56-7.34-35.61-20.42-33.94-32.43,4.15-12.05,42.21-9.87,47.1ZM629.95,86.44c-3.39,31.16,6.28,53.17,26.19,55.34,12.87,1.4,27.1-13.55,31.5-39.29,4.4-25.74,2.39-56.04-19.31-58.59-23.03-2.71-35,11.38-38.39,42.54ZM386.19,197.07c11.41,17.06,31.59,38.4,53.64,20.77,16.9-13.52,8.34-41.64-3.62-59.77-11.96-18.13-29.59-35.22-50.08-20.73-21.42,15.15-11.35,42.66.07,59.73ZM398.9,246.83c.44,2.92-1.27,5.76-4.06,6.71-4.23,1.44-9.44,3.87-8.64,6.96s6.48,1.94,10.82.56c2.64-.84,5.42.86,5.91,3.58.96,5.27,2.77,12.39,5.55,11.92s2.68-8.27,2.21-13.58c-.24-2.77,1.51-5.29,4.17-6.08,3.53-1.05,7.66-2.73,7.15-4.8s-5.25-2.17-8.97-1.88c-2.56.2-4.89-1.5-5.44-4.01-1.17-5.32-3.46-13.31-6.6-12.63-3.38.74-2.9,8.04-2.11,13.25ZM684.36,164.4c.44,2.92-1.27,5.76-4.06,6.71-4.23,1.44-9.44,3.87-8.64,6.96s6.48,1.94,10.82.56c2.64-.84,5.42.86,5.91,3.58.96,5.27,2.77,12.39,5.55,11.92s2.68-8.27,2.21-13.58c-.24-2.77,1.51-5.29,4.17-6.08,3.53-1.05,7.66-2.73,7.15-4.8s-5.25-2.17-8.97-1.88c-2.56.2-4.89-1.5-5.44-4.01-1.17-5.32-3.46-13.31-6.6-12.63-3.38.74-2.9,8.04-2.11,13.25ZM704.99,122.1c-7.46,0-13.5,6.04-13.5,13.5s6.04,13.5,13.5,13.5,13.5-6.04,13.5-13.5-6.04-13.5-13.5-13.5ZM378.08,224.58c-7.89,0-14.28,6.39-14.28,14.28s6.39,14.28,14.28,14.28,14.28-6.39,14.28-14.28-6.39-14.28-14.28-14.28Z" style="fill: #fff;"/>
  <path d="M571.46,635.84l9.55,29.55-5.38,14.08-18.22,4.44-12.23,4.98-13.26-.59-32.17,7.31-2.42-6.11-8.45-27.67-11.13-8.83,93.7-17.18ZM626.66,634.63l-1.72,22.43,5.09,9.77,14.22,2.39,10.79-12.35,5.07,14.93,13.11,1.65,15.59-5.51,21.97-3.33,2.31-7.54-5.25-18.98,1.43-12.34-50.27-9.7-32.34,18.59Z" style="fill: #ee6b60;"/>
  <path d="M584.31,673.98c-.92,4.55-3.74,8.34-8.15,10.95-4.71,2.8-10.85,3.96-16.53,3.96-2.06,0-4.06-.15-5.91-.44-1.83,2.61-4.29,4.43-7.16,5.25-2.03.58-4.17.81-6.27.81-4.05,0-7.99-.86-10.86-1.69-3.9,4.66-11.58,6.2-21.35,8.15-.83.17-1.82.29-2.91.29-3.79,0-8.76-1.53-12.3-8.27-2.42-4.59-3.71-10.59-4.97-16.39-1-4.67-2.05-9.49-3.53-12.61-3.76-7.89-16.47-5.54-16.6-5.52-2.71.52-5.33-1.24-5.86-3.95-.53-2.7,1.21-5.32,3.91-5.86.51-.1,5.11-.96,10.59-.26,8.09,1.04,13.97,4.94,16.99,11.29,1.98,4.17,3.15,9.57,4.28,14.8,3.25,15.06,5.22,17.32,8.44,16.67,11.32-2.26,15.41-3.66,15.94-5.46.02-.05.03-.1.04-.16.24-1.18,3.97-20.31-7.57-32.38-1.91-2-1.84-5.17.15-7.07,2-1.91,5.16-1.84,7.07.15,11.71,12.25,11.63,29.1,10.78,37.05,2.29.64,5.14,1.22,7.79,1.22,1.23,0,2.42-.13,3.49-.43,1.17-.33,1.93-1.55,2.36-2.51.04-.1.09-.2.13-.31.05-.14.1-.29.15-.42,1.75-4.95,1.09-14.9-5.76-28.95-1.21-2.48-.18-5.47,2.3-6.68,2.49-1.22,5.48-.19,6.69,2.3,5.78,11.86,8.33,22.83,7.39,31.28,4.72.4,10.38-.32,14-2.46,1.96-1.16,3.08-2.58,3.44-4.33,1.82-9.02-10.18-48.06-21.42-60.32-9.57-10.45-57.48-11.15-91.52-1.33-29.48,8.49-37.22,28.61-37.54,29.47-.95,2.58-3.81,3.91-6.4,2.98-2.58-.94-3.93-3.78-3-6.37.37-1.05,9.54-25.72,44.17-35.69,16.61-4.79,38.08-7.52,57.39-7.31,15.56.18,35.86,2.31,44.27,11.49,13.07,14.26,26.43,56.29,23.85,69.06ZM714.38,644.67c-.05-.25-.11-.5-.17-.76-.81-3.54-1.74-7.55-1.74-9.11,0-.7.06-1.43.17-2.17.5-3.43,1.98-7.01,2.62-8.3,1.23-2.47.22-5.47-2.24-6.7-2.47-1.24-5.48-.24-6.71,2.24-.39.78-3.83,7.87-3.84,14.91v.02c0,2.7.88,6.52,2,11.36,1.03,4.44,2.89,12.51,2.41,15.19-3.33,2.3-15.43,3.77-18.62,2.27-1.25-3.3-.58-16.54,1.51-29.11.45-2.72-1.39-5.3-4.11-5.75-2.73-.46-5.3,1.39-5.75,4.11-.06.31-1.29,7.76-1.92,15.82-.75,9.6-.25,15.01.85,18.26-2.44,1.81-6.66,1.64-11.72,1.2-.62-.06-1.22-.11-1.78-.15-2.84-.21-5.77-.42-5.31-10.91.53-12.16,2.65-23.46,2.67-23.57.52-2.71-1.26-5.33-3.97-5.84-2.72-.52-5.33,1.26-5.85,3.97-.09.49-2.28,12.1-2.84,25.01-.06,1.4-.16,3.59.07,6.05-2.61.84-6.62,1.88-10.55,1.89-5.61.06-8.76-1.92-9.4-5.79-.85-5.06-.59-53.42,27.03-67,4.89-2.4,9.34-3.78,13.35-4.44,2.18-.35,4.22-.49,6.13-.46,13.39.18,20.4,8.55,20.82,9.06,1.72,2.14,4.85,2.5,7,.8,2.17-1.71,2.54-4.85.83-7.02-.12-.17-8.91-10.99-25.12-12.63-3.72-.37-7.83-.27-12.32.56-4.64.86-9.67,2.49-15.1,5.16-33.64,16.54-33.67,70.52-32.49,77.62,1.46,8.73,8.8,14.14,19.18,14.14h.13c5.23-.02,10.36-1.33,13.67-2.4,2.13,3.02,5.64,5.35,11.33,5.77.53.04,1.08.09,1.66.14,1.65.14,3.66.32,5.84.32,4.86,0,10.48-.87,14.46-4.93,2.12.54,4.42.72,6.58.72s4.16-.18,5.72-.38c2.62-.34,11.5-1.74,15.46-5.7,4.07-4.08,2.8-11.61.06-23.47Z" style="fill: #ce5a50;"/>
  <path d="M506.73,668.17c8.07-3.87,20.41,3.21,20.24,21.34-.17,18.14-3.95,34.59-10.12,34.59s-3.21-8.88-6.83-17.11c-3.62-8.23-19.08-31.26-3.29-38.82ZM538.14,700.88c3.62,8.23.66,17.11,6.83,17.11s9.95-16.45,10.12-34.59c.17-18.14-12.17-25.21-20.24-21.34-15.79,7.57-.33,30.6,3.29,38.82ZM565.35,696.92c3.62,8.23.66,17.11,6.83,17.11s9.95-16.45,10.12-34.59c.17-18.14-12.17-25.21-20.24-21.34-15.79,7.57-.33,30.6,3.29,38.82ZM702.19,645.45c-8.43-3.01-19.96,5.31-17.91,23.33,2.05,18.02,7.52,33.99,13.66,33.35s2.27-9.17,5.02-17.73c2.75-8.56,15.73-33.07-.76-38.96ZM674.65,649.07c-8.43-3.01-19.96,5.31-17.91,23.33,2.05,18.02,7.52,33.99,13.66,33.35s2.27-9.17,5.02-17.73c2.75-8.56,15.73-33.07-.76-38.96ZM645.77,650.71c-8.43-3.01-19.96,5.31-17.91,23.33,2.05,18.02,7.52,33.99,13.66,33.35s2.27-9.17,5.02-17.73c2.75-8.56,15.73-33.07-.76-38.96ZM905.17,660.13c-3.1-15.91-18.5-26.25-34.41-23.15-9.29,1.8-16.7,7.83-20.6,15.7v.13l-.04-.04s-.04.04-.04.08v-.17c-5.36-6.99-13.77-11.47-23.23-11.47-16.2,0-29.3,13.1-29.3,29.3,0,0-4.65,30.35,60.4,63.33,57.52-44.83,47.22-73.71,47.22-73.71ZM373,841.47c3.38-.35,3.66-1.39,3.16-5.01-.32-1.87-.5-3.62-.64-5-1.05-10.28-1.64-16.04-3.16-27.16,3.11,5.63,5.18,8.59,7.47,12.41l12.24,19.39c1.09,2.04,1.6,3.26,3.86,3.03,3.76-.38,3.78-1.4,1.39-4.96-1.94-2.84-3.56-5.08-5.11-7.84-1.08-1.92-7.18-10.79-9.46-14.49-3.05-5.01-6.47-9.98-9.94-15.45,2.06-4.64,4.07-8.52,6-13.15,7.01-16.93,8.27-19.47,9.79-24.43,1.16-3.54,1.09-5.43-2.31-5.21-1.13.12-1.79,1.07-2.29,2.39-2.78,7.5-5.5,14.37-9.3,24.26-1.18,3.29-3.24,7.93-3.81,9.76.14-4.83-.44-10.47-.98-15.73-.31-4.27-.75-8.54-1.18-12.8-.44-4.26-.48-5.9-2.98-5.65-3.38.35-2.84,1.94-2.41,6.2,1.03,10.03,1.46,13.02,1.93,17.66l1.42,13.91c.79,7.77,1.33,15.45,2.24,24.34.79,7.77,1.32,12.91,1.92,20.07.26,2.51.62,3.61,2.13,3.46ZM409.75,837.96c2.24-.36,2.23-1.75,1.83-5.63-.56-5.52-1.1-9.51-1.5-14.67-1.34-14.3-3.06-29.96-4.35-45.03-.55-5.39-1.16-10.14-1.59-15.54-.19-1.88.35-5.23-3.28-4.86-2.38.24-2.24,2.89-2.03,4.89.82,6.76,1.32,12.91,1.99,19.43.47,4.64.95,10.54,1.48,15.68,1.25,11.02,3.82,37.35,3.98,41.39.19,1.88-.52,4.87,3.48,4.33ZM429.18,835.98c2.24-.36,2.23-1.75,1.83-5.63-.56-5.52-1.1-9.51-1.5-14.67-1.34-14.3-3.06-29.96-4.35-45.03-.55-5.39-1.16-10.14-1.59-15.54-.19-1.88.35-5.23-3.29-4.86-2.38.24-2.24,2.89-2.03,4.89.82,6.76,1.32,12.91,1.99,19.43.47,4.64.95,10.54,1.48,15.68,1.25,11.02,3.82,37.35,3.98,41.39.19,1.88-.52,4.87,3.48,4.33ZM454.36,833.27c2.13-.22,2.27-1.37,1.83-5.63l-3.36-32.84c-1.64-13.51-2.72-27.84-4.42-41.98,2.75-.41,4.14-.42,6.02-.62,3.55.02,5.89-.6,5.45-3.72-.22-2.13-1.89-2.34-5.87-1.68-4.5.59-8.88,1.16-13.39,1.62-2,.21-4.15.3-6.91.58-1.76.18-2.58.77-2.31,3.4.18,1.75,2.1,1.94,5.72,1.44,1.88-.19,3.5-.48,5.78-.46,2.31,20.16,4.2,38.58,6.34,59.52.65,5.13,1.35,10.76,1.62,14.65.1,4.68.75,6.13,3.5,5.72ZM488.02,830.47c10.46-.56,12.91-13.73,12.79-26.01-.03-6.46-.07-9.37-.6-15.77-.36-4.78-1.46-13.02-2.65-19.74-.93-5.35-2.55-12.53-4.79-17.12-2.29-5.08-6.32-9.74-12.88-8.31-4.85.88-8.82,5.46-10.62,12.61-2.2,8.21-2.09,17.95-1.67,28.29.54,10.21,1.92,21.21,4.77,30.54,2.49,8.23,7.75,16.31,15.65,15.5ZM487.74,825.3c-3.64.37-6.38-2.89-8.82-8.22-3.96-8.97-5.7-23.48-6.04-36.75-.35-9.59-.12-16.07,1.59-22.84.97-4.15,2.73-8,6.71-8.67,3.13-.32,4.8,1.15,6.87,5.25,3.01,5.9,5.63,22.86,6.82,34.51.64,6.27.59,10.71.56,16.66-.1,10.14-1.81,19.44-7.7,20.04ZM526.4,826.79c2.13-.22,4.34-.95,6.12-2.14,5.07-3.68,6.46-9.91,5.32-16.12-1.82-10.33-10.58-24.25-14.9-31.79-4.51-8.15-6.32-11.01-8.59-15.84-1.85-4.5-3.97-11.63.48-15.12.84-.46,1.57-.79,2.44-.88,1-.1,2.04.17,2.83.47,2.79,1.24,4.74,5.47,4.66,9.66-.04.89-.48,2.71.41,4.01.74,1.06,3.51.91,4.54-.21,1.26-1.27.67-3.36.54-4.62-.4-6.42-3.08-11.59-7.43-13.17-1.77-1.21-3.83-1.51-5.83-1.3-2.51.26-5.19,1.29-6.9,3.11-2.4,2.53-3.63,6.58-3.25,10.34.6,7.16,3.8,12.4,6.45,17.2,1.4,2.52,3.3,6.25,5,9.24,5.21,8.84,11.25,19.62,13.5,26.74,1.93,6.52,1.19,12.92-3.97,14.47-4.54,1.48-7.9-.46-9.88-3.68-1.51-2.38-2.14-7.26-1.62-10.86.22-1.54.54-4.62-2.97-4.26-2.01.21-2.37,1.64-2.55,3.55-.43,4.48-.35,12.7,5.38,17.94,2.65,2.39,6.45,3.65,10.21,3.26ZM575.57,820.88c2.13-.22,2.27-1.37,1.83-5.63l-3.36-32.84c-1.63-13.51-2.72-27.84-4.42-41.98,2.75-.41,4.14-.42,6.02-.62,3.55.02,5.89-.6,5.45-3.72-.22-2.13-1.89-2.34-5.87-1.68-4.5.59-8.87,1.16-13.39,1.62-2,.21-4.15.3-6.91.58-1.76.18-2.58.77-2.31,3.4.18,1.75,2.1,1.94,5.72,1.44,1.88-.19,3.5-.48,5.78-.46,2.31,20.16,4.2,38.58,6.34,59.52.65,5.13,1.35,10.76,1.62,14.65.1,4.68.75,6.13,3.5,5.72ZM611.62,817.96c2.13-.22,4.22-.81,5.64-1.84,7.61-4.83,6.37-18.26,5.13-29.15-1.65-14.91-5.14-45.33-5.71-52.11-.18-3.02-.34-4.53-3.33-4.09-2.12.34-1.88,2.72-1.08,10.5.23,2.26,5.37,48.85,5.69,54.39.4,6.42.31,15.42-5.49,16.9-1.73.43-3.75.51-5.59-.19-2.23-.79-4.11-3-4.88-6.85-1.22-5.7-3.55-29.78-4.66-39.42-.94-9.15-2.6-22.91-2.65-28.36.09-4.06-.54-5.26-2.92-5.02-3.12.45-3,1.57-2.59,5.58l2.68,26.2c.01.12,3.47,32.7,4.38,39.07.87,5.99,2.84,10.48,6.89,12.85,2.03,1.31,5.38,1.86,8.52,1.54ZM647.9,813.61c3.11-.57,8.14-.96,11.02-1.25,2.87-.42,3.72-.76,3.33-3.38-.37-2.37-2.14-2.31-5.75-1.69-3.74.64-9.39,1.09-13.27,1.48-.69-6.77-.86-10.93-1.3-16.46-1.04-11.42-2.03-21.07-3.42-32.2,1.74-.3,3.74-.64,5.63-.7,6.04-.37,9.03-.92,8.62-3.67-.47-2.11-1.36-2.14-4.02-2.12-2.77.16-8.04.69-11.02,1.25-1.02-7.5-1.25-13.42-2.28-21.04,3.96-.91,10.62-1.47,14.5-1.86,2.88-.29,3.87-.52,4.02-2.82.08-2.92-1.84-3.1-6.44-2.25-2.73.53-6.78.57-9.15.94-1.62.29-7.01.84-8.11,2.47-.76,1.22-.03,4.69.14,6.32,1.24,9.62,2.01,17.15,3.07,26.28,1.03,7.62,2.93,27.44,3.29,32.22.79,10.18,1.37,17.09,2.25,18.26,1.02,1.29,4.28.96,8.89.23ZM682.2,810.87c2.13-.22,4.34-.95,6.12-2.15,5.07-3.68,6.46-9.91,5.32-16.12-1.82-10.33-10.58-24.25-14.9-31.79-4.51-8.15-6.32-11.01-8.59-15.84-1.85-4.5-3.98-11.63.48-15.12.84-.47,1.57-.79,2.44-.88,1-.1,2.04.17,2.84.47,2.79,1.23,4.74,5.47,4.66,9.66-.04.89-.48,2.71.41,4.01.74,1.06,3.51.91,4.54-.21,1.26-1.27.67-3.36.54-4.62-.4-6.42-3.08-11.59-7.43-13.17-1.77-1.21-3.83-1.51-5.83-1.3-2.51.26-5.19,1.29-6.9,3.11-2.4,2.53-3.63,6.58-3.25,10.34.61,7.16,3.8,12.4,6.45,17.2,1.4,2.52,3.3,6.25,5,9.24,5.21,8.84,11.25,19.62,13.5,26.74,1.93,6.52,1.19,12.92-3.97,14.47-4.54,1.48-7.9-.46-9.88-3.68-1.51-2.38-2.14-7.26-1.62-10.86.22-1.54.54-4.62-2.97-4.26-2.01.21-2.37,1.63-2.55,3.55-.43,4.48-.35,12.7,5.38,17.94,2.65,2.39,6.45,3.65,10.21,3.26ZM713.2,806.81c2.13-.22,2.27-1.37,1.83-5.63l-3.36-32.84c-1.63-13.51-2.72-27.84-4.42-41.98,2.75-.41,4.14-.42,6.02-.62,3.55.02,5.89-.6,5.45-3.72-.22-2.13-1.89-2.34-5.87-1.68-4.5.59-8.88,1.16-13.39,1.62-2,.21-4.15.3-6.91.58-1.76.18-2.58.77-2.31,3.4.18,1.75,2.1,1.94,5.72,1.44,1.88-.19,3.5-.48,5.78-.46,2.31,20.16,4.2,38.58,6.34,59.52.65,5.13,1.35,10.76,1.62,14.65.1,4.68.75,6.13,3.5,5.72ZM759.54,798.02c-1-3.57-2.27-7.37-2.91-9.84-1.73-5.78-3.28-11.06-4.97-17.6-2.02-7.39-4.81-18.51-5.95-23.46-2.1-8.15-4.02-15.8-6.79-25.53-.78-2.71-1.09-4.45-3.97-4.15-2.76.28-2.79,2.44-3.08,5.76-.78,9.71-1.31,14.45-2,26.3-.14,3.56-.61,15.13-1.05,21.89-.28,3.45-1.42,20.79-2.31,28.23-.49,3.85-.54,5.88,2.59,5.56,3.13-.32,3.08-2.09,3.27-5.15.17-4.58.56-8.16.75-12.49.11-2.67.51-8.67.81-13.13,3.65-.25,8.8-.65,12.63-1.54,2.78,9.85,6.19,20.9,7.1,24.86.48,2.23.75,4.86,4.5,4.35,1.87-.32,2-1.47,1.36-4.07ZM734.41,769.05v-1.27c.51-8.67.76-17.3,1.1-26.33.03-2.16.38-11.18.43-14.36,2.57,12.78,5.5,25.28,9.18,40.23l.03.25c-3.08.82-7.46,1.4-10.74,1.48ZM780.35,800.83c2.13-.22,4.34-.95,6.12-2.14,5.07-3.69,6.46-9.91,5.32-16.12-1.82-10.33-10.58-24.25-14.9-31.79-4.51-8.15-6.32-11.01-8.59-15.84-1.85-4.5-3.98-11.63.48-15.12.84-.47,1.57-.79,2.44-.88,1-.1,2.04.17,2.84.47,2.79,1.23,4.74,5.47,4.66,9.66-.04.89-.48,2.71.41,4.01.74,1.07,3.51.91,4.54-.21,1.26-1.27.67-3.36.54-4.62-.4-6.42-3.08-11.59-7.43-13.17-1.77-1.21-3.83-1.51-5.83-1.3-2.51.26-5.19,1.29-6.9,3.11-2.4,2.53-3.63,6.58-3.25,10.34.61,7.16,3.8,12.4,6.45,17.2,1.4,2.52,3.3,6.25,5,9.24,5.21,8.84,11.25,19.62,13.5,26.74,1.93,6.52,1.19,12.93-3.97,14.47-4.54,1.48-7.9-.46-9.88-3.68-1.51-2.38-2.14-7.25-1.62-10.85.22-1.54.54-4.62-2.97-4.26-2.01.21-2.37,1.64-2.55,3.55-.43,4.48-.35,12.7,5.38,17.94,2.65,2.39,6.45,3.65,10.21,3.26ZM806.59,797.39c2.24-.36,2.23-1.75,1.83-5.63-.56-5.52-1.1-9.51-1.5-14.67-1.33-14.3-3.06-29.96-4.35-45.03-.55-5.39-1.16-10.14-1.59-15.54-.19-1.88.35-5.23-3.28-4.86-2.38.24-2.24,2.89-2.03,4.89.82,6.76,1.32,12.91,1.99,19.43.47,4.64.95,10.54,1.48,15.68,1.25,11.02,3.82,37.35,3.98,41.39.19,1.88-.52,4.87,3.48,4.33Z"/>
</svg>